#!OML:ASF H:\Terrain\Patient Classification 1\Walking\liu\liu.ASF
:FULLY-SPECIFIED
:DEGREES
97
root 8.46259 16.065 -22.8133 8.71049 3.82355 4.64642
lowerback -4.59188 -4.32462 -6.91845
upperback -0.642553 -5.46935 2.02604
thorax 2.75154 -2.81968 5.56514
lowerneck -23.4361 -3.4427 -11.8086
upperneck 22.9634 -3.66426 11.1721
head 11.852 -1.25592 5.59607
rclavicle -5.11871e-015 1.27222e-014
rhumerus -50.8888 4.82014 -80.186
rradius 27.8215
rwrist -12.6162
rhand -31.3534 -21.6001
rfingers 7.12502
rthumb -4.6244 -51.5296
lclavicle -5.11871e-015 1.27222e-014
lhumerus -10.0988 -21.1957 83.217
lradius 39.6997
lwrist 10.5397
lhand -15.7495 -28.0814
lfingers 7.12502
lthumb 10.4418 1.63926
rfemur -43.8882 8.99149 11.5238
rtibia 26.2622
rfoot -21.85 -6.96247
rtoes -19.8981
lfemur 15.5294 4.74256 -27.496
ltibia 4.77083e-014
lfoot -10.1719 -6.60476
ltoes 2.50141
98
root 8.4516 16.0374 -22.5946 8.90582 3.65335 4.49936
lowerback -5.04152 -4.35938 -6.8071
upperback -0.633564 -5.49246 2.09952
thorax 3.01314 -2.8391 5.54346
lowerneck -23.6145 -3.31128 -11.8167
upperneck 22.9997 -3.4815 11.2648
head 11.8765 -1.15874 5.66889
rclavicle 1.02374e-014 1.35174e-014
rhumerus -50.5945 4.12823 -79.4783
rradius 27.4143
rwrist -11.6632
rhand -30.3462 -21.9833
rfingers 7.12502
rthumb -3.65178 -51.9317
lclavicle 1.02374e-014 1.35174e-014
lhumerus -10.1422 -21.0999 83.1926
lradius 40.1697
lwrist 10.5342
lhand -16.164 -28.3065
lfingers 7.12502
lthumb 10.0419 1.43391
rfemur -43.8513 7.73668 12.8854
rtibia 26.831
rfoot -20.7953 -6.10887
rtoes -20.6474
lfemur 16.1224 5.20977 -27.0295
ltibia 5.08889e-014
lfoot -9.52779 -7.18009
ltoes 3.80898
99
root 8.44122 16.0009 -22.3812 8.77084 3.51402 4.68393
lowerback -4.92159 -4.31597 -7.00474
upperback -0.653645 -5.43 2.01776
thorax 2.92595 -2.80615 5.58473
lowerneck -23.5992 -3.26326 -11.6055
upperneck 22.9194 -3.44085 11.0979
head 11.8291 -1.14191 5.56911
rclavicle -2.80783e-014 -2.38542e-015
rhumerus -50.5654 3.27385 -78.8952
rradius 26.6914
rwrist -10.3728
rhand -28.1312 -19.5482
rfingers 7.12502
rthumb -1.51264 -49.5226
lclavicle -2.80783e-014 -2.38542e-015
lhumerus -10.422 -21.3673 83.27
lradius 40.7692
lwrist 10.9777
lhand -16.0646 -28.4497
lfingers 7.12502
lthumb 10.1378 1.2861
rfemur -43.5317 6.64149 13.763
rtibia 27.6541
rfoot -19.9304 -5.01533
rtoes -21.1215
lfemur 17.1192 5.6363 -26.8722
ltibia -8.5875e-014
lfoot -8.87631 -7.74869
ltoes 5.51733
100
root 8.43062 15.9573 -22.1704 8.58373 3.58664 4.97332
lowerback -4.73024 -4.28011 -7.27481
upperback -0.639247 -5.37844 1.91311
thorax 2.84062 -2.78028 5.64497
lowerneck -23.6709 -3.3481 -11.6058
upperneck 22.9618 -3.53207 11.0134
head 11.8704 -1.19239 5.52317
rclavicle 4.4975e-014 2.54444e-014
rhumerus -50.7674 3.09673 -78.8704
rradius 26.4055
rwrist -10.3627
rhand -28.2059 -18.7488
rfingers 7.12502
rthumb -1.5848 -48.7226
lclavicle 4.4975e-014 2.54444e-014
lhumerus -10.6557 -21.6348 83.4768
lradius 41.27
lwrist 11.3243
lhand -15.7651 -28.8297
lfingers 7.12502
lthumb 10.4268 0.891745
rfemur -43.2904 5.79989 14.2375
rtibia 28.7446
rfoot -18.4625 -3.76647
rtoes -22.2031
lfemur 18.1528 5.84831 -26.8205
ltibia 3.18055e-015
lfoot -8.03208 -8.13273
ltoes 6.74076
101
root 8.42022 15.9246 -21.9463 8.59487 3.76228 4.95138
lowerback -4.88667 -4.34931 -7.21866
upperback -0.651785 -5.46316 1.94159
thorax 2.92584 -2.82456 5.62364
lowerneck -23.9606 -3.33676 -11.4285
upperneck 23.1736 -3.45387 10.6312
head 11.9855 -1.18561 5.36776
rclavicle -3.06625e-014 1.19271e-014
rhumerus -50.732 2.76458 -78.5692
rradius 26.0852
rwrist -10.0848
rhand -29.1986 -20.4722
rfingers 7.12502
rthumb -2.54349 -50.4368
lclavicle -3.06625e-014 1.19271e-014
lhumerus -11.053 -21.9547 83.6753
lradius 41.6615
lwrist 11.1895
lhand -16.4978 -29.3906
lfingers 7.12502
lthumb 9.71989 0.365133
rfemur -43.3373 5.17112 14.8651
rtibia 30.0154
rfoot -15.9905 -2.82421
rtoes -22.6646
lfemur 18.9279 5.97653 -26.4681
ltibia 0
lfoot -7.15942 -8.30048
ltoes 6.47439
102
root 8.40967 15.9105 -21.7157 8.58931 3.72424 5.07994
lowerback -5.05471 -4.44542 -7.30377
upperback -0.700356 -5.57421 1.90833
thorax 2.99106 -2.88115 5.61411
lowerneck -23.9903 -3.13983 -11.4027
upperneck 23.2217 -3.1969 10.6808
head 11.9748 -1.06152 5.4294
rclavicle -1.00585e-013 1.43125e-014
rhumerus -50.453 1.88966 -77.7789
rradius 25.5359
rwrist -8.73041
rhand -29.1846 -21.9356
rfingers 7.12502
rthumb -2.52999 -51.9004
lclavicle -1.00585e-013 1.43125e-014
lhumerus -11.6852 -22.1797 83.7347
lradius 42.1948
lwrist 11.1349
lhand -17.0777 -29.6128
lfingers 7.12502
lthumb 9.16037 0.168262
rfemur -43.5321 4.79948 15.1641
rtibia 31.3437
rfoot -12.9908 -2.29757
rtoes -23.0194
lfemur 19.676 6.29675 -26.3223
ltibia 1.27222e-014
lfoot -6.31637 -8.27114
ltoes 3.83268
103
root 8.39825 15.9087 -21.4846 8.55854 3.74627 5.17814
lowerback -5.16577 -4.53278 -7.3679
upperback -0.784026 -5.68011 1.89257
thorax 2.98672 -2.93164 5.61723
lowerneck -23.8486 -3.03568 -11.7809
upperneck 23.2402 -3.08093 11.231
head 11.9553 -0.977065 5.7318
rclavicle -2.25621e-014 3.18055e-015
rhumerus -50.5229 1.46303 -77.3135
rradius 25.6668
rwrist -8.1601
rhand -29.725 -23.0381
rfingers 7.12502
rthumb -3.05188 -52.996
lclavicle -2.25621e-014 3.18055e-015
lhumerus -12.2644 -22.2972 83.8907
lradius 42.5993
lwrist 11.3918
lhand -17.1447 -29.7702
lfingers 7.12502
lthumb 9.09572 0.013689
rfemur -43.8074 4.72535 15.2172
rtibia 32.678
rfoot -10.6283 -1.87508
rtoes -21.4649
lfemur 20.4473 6.56222 -26.1389
ltibia -6.36111e-015
lfoot -5.28931 -8.11702
ltoes 0.596852
104
root 8.38587 15.8967 -21.2548 8.47373 3.87304 4.8984
lowerback -5.1769 -4.53452 -7.09251
upperback -0.89002 -5.70335 2.03071
thorax 2.87332 -2.93429 5.60971
lowerneck -23.9292 -3.07157 -11.9902
upperneck 23.4589 -3.06463 11.2556
head 12.0574 -0.987023 5.79291
rclavicle 1.63997e-014 3.97569e-015
rhumerus -50.8517 1.35001 -77.0311
rradius 25.9949
rwrist -8.39408
rhand -31.3648 -22.779
rfingers 7.12502
rthumb -4.63543 -52.7083
lclavicle 1.63997e-014 3.97569e-015
lhumerus -12.8491 -22.6059 84.3606
lradius 42.9086
lwrist 11.6658
lhand -17.4534 -29.8576
lfingers 7.12502
lthumb 8.79783 -0.0609847
rfemur -43.8731 4.86762 15.571
rtibia 33.9888
rfoot -8.97012 -1.5983
rtoes -17.8796
lfemur 21.2579 6.76792 -25.5016
ltibia 6.67916e-014
lfoot -3.94813 -7.94793
ltoes -0.986033
105
root 8.37757 15.8779 -21.03 8.20467 3.91053 4.57526
lowerback -4.98811 -4.46125 -6.68045
upperback -0.915313 -5.64356 2.10232
thorax 2.69987 -2.89437 5.47654
lowerneck -24.266 -3.11693 -11.9777
upperneck 23.9052 -3.058 11.0321
head 12.2922 -1.01058 5.73014
rclavicle 5.76972e-014 -3.18055e-015
rhumerus -51.0097 1.64751 -77.2892
rradius 25.7281
rwrist -8.84633
rhand -32.0543 -21.0165
rfingers 7.12502
rthumb -5.30116 -50.9302
lclavicle 5.76972e-014 -3.18055e-015
lhumerus -13.5099 -22.6697 84.8317
lradius 43.2166
lwrist 11.5187
lhand -17.4876 -30.0252
lfingers 7.12502
lthumb 8.76483 -0.227155
rfemur -43.4949 4.9189 16.1205
rtibia 35.2166
rfoot -7.3437 -1.5337
rtoes -15.396
lfemur 22.2493 7.0789 -24.825
ltibia 5.40694e-014
lfoot -2.38237 -7.55936
ltoes -2.70667
106
root 8.37182 15.8668 -20.8049 7.75311 3.87948 4.02651
lowerback -4.67092 -4.37642 -5.98284
upperback -0.857003 -5.58666 2.16377
thorax 2.51462 -2.85568 5.17845
lowerneck -24.514 -3.0781 -11.8308
upperneck 24.2659 -3.02551 10.935
head 12.4739 -0.994663 5.69357
rclavicle 6.25178e-014 -9.54166e-015
rhumerus -51.0149 2.15267 -77.9137
rradius 25.1197
rwrist -8.85451
rhand -32.0445 -19.3643
rfingers 7.12502
rthumb -5.29174 -49.2782
lclavicle 6.25178e-014 -9.54166e-015
lhumerus -14.1934 -22.2677 85.1662
lradius 43.3892
lwrist 11.1246
lhand -17.1206 -30.3808
lfingers 7.12502
lthumb 9.11899 -0.597974
rfemur -42.8398 4.7391 17.146
rtibia 36.3473
rfoot -6.22382 -1.29455
rtoes -14.9277
lfemur 23.4784 7.49013 -23.9312
ltibia 3.18055e-014
lfoot -0.679888 -6.92479
ltoes -6.47961
